<svg xmlns="http://www.w3.org/2000/svg" viewBox="0 0 120 120" fill="none" aria-hidden="true">
  <defs>
    <linearGradient id="ncg" x1="0%" y1="0%" x2="100%" y2="100%">
      <stop offset="0%" style="stop-color:#0e2652"/>
      <stop offset="100%" style="stop-color:#3d62a3"/>
    </linearGradient>
  </defs>
  <rect width="120" height="120" rx="28" fill="url(#ncg)"/>
  <path fill="#fff" fill-opacity="0.95" d="M60 28c-8 0-14 6.5-14 14.5v6c-9 2-15 10-15 19v28h10V68c0-4 3.5-7.5 8-7.5h22c4.5 0 8 3.5 8 7.5v27.5h10V68c0-9-6-17-15-19v-6C74 34.5 68 28 60 28zm0 10c2.2 0 4 1.8 4 4v5H56v-5c0-2.2 1.8-4 4-4z"/>
  <path stroke="#fff" stroke-width="4" stroke-linecap="round" d="M42 92h36"/>
</svg>
